<?xml version="1.0" encoding="utf-8"?>
<!-- Generator: Adobe Illustrator 14.0.0, SVG Export Plug-In . SVG Version: 6.00 Build 43363)  -->
<!DOCTYPE svg PUBLIC "-//W3C//DTD SVG 1.1//EN" "http://www.w3.org/Graphics/SVG/1.1/DTD/svg11.dtd">
<svg version="1.1" id="Layer_1" xmlns="http://www.w3.org/2000/svg" xmlns:xlink="http://www.w3.org/1999/xlink" x="0px" y="0px"
	 width="16px" height="16px" viewBox="0 0 16 16" enable-background="new 0 0 16 16" xml:space="preserve">
<g>
	<rect x="-287.14" y="135.561" fill="#FFFFFF" width="11" height="15"/>
</g>
<path fill="#17A5B5" d="M14,0H6v5.76V9.5C6,10.881,7.119,12,8.5,12S11,10.881,11,9.5S9.881,7,8.5,7H8V5h0.5
	C10.984,5,13,7.015,13,9.5c0,2.483-2.016,4.5-4.5,4.5C6.016,14,4,11.983,4,9.5V0H2C0.896,0,0,0.896,0,2v12c0,1.104,0.896,2,2,2h12
	c1.104,0,2-0.896,2-2V2C16,0.896,15.104,0,14,0z"/>
</svg>
