<?xml version="1.0" encoding="utf-8"?>
<!-- Generator: Adobe Illustrator 14.0.0, SVG Export Plug-In . SVG Version: 6.00 Build 43363)  -->
<!DOCTYPE svg PUBLIC "-//W3C//DTD SVG 1.1//EN" "http://www.w3.org/Graphics/SVG/1.1/DTD/svg11.dtd">
<svg version="1.1" id="Layer_1" xmlns="http://www.w3.org/2000/svg" xmlns:xlink="http://www.w3.org/1999/xlink" x="0px" y="0px"
	 width="240px" height="96px" viewBox="0 0 240 96" enable-background="new 0 0 240 96" xml:space="preserve">
<rect x="28" y="16" fill="#FFFFFF" width="44" height="60"/>
<g>
	<path fill="#17A5B5" d="M72,16H40v23.039V54c0,5.523,4.477,10,10,10s10-4.477,10-10s-4.477-10-10-10h-2v-8h2
		c9.938,0,18,8.059,18,18c0,9.934-8.062,18-18,18c-9.936,0-18-8.066-18-18V16h-8c-4.416,0-8,3.582-8,8v48c0,4.414,3.584,8,8,8h48
		c4.414,0,8-3.586,8-8V24C80,19.582,76.414,16,72,16z"/>
	<g>
		<path d="M101.899,59.112c1.666,0,2.96,0.57,3.881,1.708c0.922,1.137,1.383,2.746,1.383,4.827c0,2.082-0.465,3.702-1.395,4.854
			c-0.929,1.153-2.218,1.728-3.869,1.728c-0.825,0-1.579-0.149-2.261-0.455C98.956,71.47,98.382,71,97.92,70.368h-0.139l-0.405,1.63
			H96V54h1.92v4.371c0,0.981-0.031,1.858-0.092,2.639h0.092C98.814,59.745,100.142,59.112,101.899,59.112z M101.622,60.72
			c-1.312,0-2.256,0.379-2.834,1.131c-0.579,0.75-0.867,2.016-0.867,3.797c0,1.782,0.296,3.059,0.89,3.825
			c0.594,0.767,1.546,1.148,2.857,1.148c1.181,0,2.06-0.428,2.638-1.287c0.579-0.859,0.868-2.099,0.868-3.709
			c0-1.649-0.289-2.88-0.868-3.69C103.727,61.125,102.833,60.72,101.622,60.72z"/>
		<path d="M112.321,59.321v8.226c0,1.031,0.235,1.803,0.706,2.312c0.471,0.51,1.207,0.763,2.21,0.763
			c1.326,0,2.295-0.361,2.909-1.087c0.613-0.725,0.92-1.908,0.92-3.552v-6.661h1.919v12.677H119.4l-0.277-1.699h-0.104
			c-0.395,0.623-0.94,1.102-1.637,1.435c-0.698,0.33-1.494,0.496-2.389,0.496c-1.543,0-2.698-0.367-3.465-1.099
			s-1.15-1.903-1.15-3.517v-8.293H112.321z"/>
		<path d="M133.686,70.299h-0.104c-0.888,1.287-2.213,1.931-3.979,1.931c-1.657,0-2.947-0.565-3.869-1.7
			c-0.922-1.134-1.382-2.747-1.382-4.835c0-2.089,0.462-3.713,1.389-4.87c0.925-1.157,2.213-1.734,3.862-1.734
			c1.72,0,3.038,0.623,3.956,1.872h0.15l-0.081-0.912l-0.046-0.893V54h1.92v17.998h-1.561L133.686,70.299z M129.846,70.621
			c1.311,0,2.262-0.355,2.851-1.068c0.591-0.713,0.886-1.866,0.886-3.455v-0.403c0-1.797-0.299-3.078-0.896-3.844
			c-0.598-0.769-1.553-1.153-2.863-1.153c-1.125,0-1.987,0.439-2.586,1.314c-0.596,0.876-0.896,2.109-0.896,3.705
			c0,1.62,0.298,2.841,0.891,3.667C127.825,70.208,128.697,70.621,129.846,70.621z"/>
		<path d="M148.203,70.299h-0.104c-0.887,1.287-2.214,1.931-3.979,1.931c-1.658,0-2.947-0.565-3.869-1.7
			c-0.921-1.134-1.383-2.747-1.383-4.835c0-2.089,0.463-3.713,1.389-4.87s2.214-1.734,3.863-1.734c1.72,0,3.038,0.623,3.956,1.872
			h0.15l-0.08-0.912l-0.047-0.893V54h1.919v17.998h-1.561L148.203,70.299z M144.362,70.621c1.312,0,2.261-0.355,2.852-1.068
			c0.589-0.713,0.885-1.866,0.885-3.455v-0.403c0-1.797-0.299-3.078-0.897-3.844c-0.598-0.769-1.551-1.153-2.861-1.153
			c-1.127,0-1.988,0.439-2.586,1.314c-0.598,0.876-0.895,2.109-0.895,3.705c0,1.62,0.295,2.841,0.889,3.667
			C142.342,70.208,143.213,70.621,144.362,70.621z"/>
		<path d="M152.077,59.321h2.06l2.775,7.229c0.609,1.65,0.988,2.842,1.135,3.574h0.092c0.102-0.393,0.311-1.064,0.631-2.017
			s1.367-3.883,3.141-8.786h2.059l-5.447,14.436c-0.541,1.426-1.171,2.44-1.893,3.037c-0.721,0.597-1.606,0.896-2.654,0.896
			c-0.586,0-1.165-0.066-1.735-0.197v-1.538c0.425,0.093,0.899,0.138,1.423,0.138c1.318,0,2.26-0.74,2.822-2.219l0.707-1.805
			L152.077,59.321z"/>
		<path d="M171.094,72.229c-1.836,0-3.256-0.562-4.262-1.692c-1.006-1.131-1.51-2.73-1.51-4.797c0-2.12,0.51-3.759,1.533-4.916
			c1.02-1.157,2.477-1.734,4.365-1.734c0.609,0,1.219,0.065,1.828,0.195c0.607,0.131,1.086,0.285,1.436,0.463l-0.594,1.632
			c-0.422-0.172-0.883-0.31-1.385-0.422c-0.502-0.111-0.943-0.168-1.332-0.168c-2.574,0-3.863,1.643-3.863,4.927
			c0,1.558,0.316,2.753,0.941,3.586c0.631,0.833,1.562,1.25,2.795,1.25c1.055,0,2.143-0.229,3.252-0.684v1.699
			C173.449,72.009,172.383,72.229,171.094,72.229z"/>
		<path d="M179.225,71.998h-1.918V54h1.918V71.998z"/>
		<path d="M194.238,65.647c0,2.067-0.518,3.684-1.561,4.844c-1.039,1.161-2.479,1.738-4.312,1.738c-1.137,0-2.143-0.266-3.021-0.8
			c-0.877-0.53-1.557-1.294-2.037-2.289c-0.477-0.995-0.717-2.159-0.717-3.493c0-2.065,0.52-3.674,1.551-4.827
			c1.033-1.153,2.467-1.73,4.303-1.73c1.773,0,3.184,0.588,4.229,1.77C193.717,62.039,194.238,63.636,194.238,65.647z
			 M184.582,65.647c0,1.618,0.322,2.853,0.973,3.702c0.645,0.848,1.6,1.271,2.855,1.271c1.258,0,2.213-0.419,2.861-1.264
			c0.654-0.846,0.979-2.083,0.979-3.71c0-1.611-0.324-2.833-0.979-3.67c-0.648-0.837-1.611-1.258-2.885-1.258
			c-1.256,0-2.205,0.414-2.844,1.237C184.9,62.782,184.582,64.014,184.582,65.647z"/>
		<path d="M199.412,59.321v8.226c0,1.031,0.234,1.803,0.703,2.312c0.469,0.51,1.207,0.763,2.211,0.763
			c1.324,0,2.295-0.361,2.908-1.087c0.613-0.725,0.92-1.908,0.92-3.552v-6.661h1.922v12.677h-1.588l-0.275-1.699h-0.104
			c-0.396,0.623-0.941,1.102-1.639,1.435c-0.699,0.33-1.492,0.496-2.389,0.496c-1.543,0-2.697-0.367-3.465-1.099
			c-0.766-0.731-1.15-1.903-1.15-3.517v-8.293H199.412z"/>
		<path d="M220.775,70.299h-0.104c-0.889,1.287-2.215,1.931-3.982,1.931c-1.654,0-2.945-0.565-3.867-1.7
			c-0.922-1.134-1.383-2.747-1.383-4.835c0-2.089,0.463-3.713,1.389-4.87s2.213-1.734,3.861-1.734c1.723,0,3.039,0.623,3.959,1.872
			h0.15l-0.082-0.912l-0.045-0.893V54h1.92v17.998h-1.561L220.775,70.299z M216.934,70.621c1.312,0,2.264-0.355,2.85-1.068
			c0.59-0.713,0.889-1.866,0.889-3.455v-0.403c0-1.797-0.301-3.078-0.9-3.844c-0.596-0.769-1.549-1.153-2.861-1.153
			c-1.123,0-1.986,0.439-2.584,1.314c-0.598,0.876-0.896,2.109-0.896,3.705c0,1.62,0.299,2.841,0.889,3.667
			C214.914,70.208,215.787,70.621,216.934,70.621z"/>
	</g>
</g>
</svg>
